<mxfile host="app.diagrams.net" agent="Mozilla/5.0 (Windows NT 10.0; Win64; x64) AppleWebKit/537.36 (KHTML, like Gecko) Chrome/138.0.0.0 Safari/537.36" version="28.0.5" pages="2">
  <diagram name="Page-1" id="6DCV6nlKGQi0xwp1ph_u">
    <mxGraphModel dx="2239" dy="731" grid="1" gridSize="10" guides="1" tooltips="1" connect="1" arrows="1" fold="1" page="1" pageScale="1" pageWidth="850" pageHeight="1100" background="light-dark(#FFFFFF,#FFFFFF)" math="0" shadow="0">
      <root>
        <mxCell id="0" />
        <mxCell id="1" parent="0" />
        <mxCell id="NYQTRqBEmPjAueyma8ls-2" value="&lt;h1&gt;Start&lt;/h1&gt;" style="ellipse;whiteSpace=wrap;html=1;direction=west;fillColor=#0050ef;fontColor=#ffffff;strokeColor=#001DBC;" parent="1" vertex="1">
          <mxGeometry x="30" y="60" width="120" height="80" as="geometry" />
        </mxCell>
        <mxCell id="NYQTRqBEmPjAueyma8ls-4" value="" style="endArrow=classic;html=1;rounded=0;" parent="1" edge="1">
          <mxGeometry width="50" height="50" relative="1" as="geometry">
            <mxPoint x="360" y="380" as="sourcePoint" />
            <mxPoint x="410" y="330" as="targetPoint" />
          </mxGeometry>
        </mxCell>
        <mxCell id="NYQTRqBEmPjAueyma8ls-5" value="" style="endArrow=classic;html=1;rounded=0;" parent="1" edge="1">
          <mxGeometry width="50" height="50" relative="1" as="geometry">
            <mxPoint x="390" y="400" as="sourcePoint" />
            <mxPoint x="450" y="350" as="targetPoint" />
          </mxGeometry>
        </mxCell>
        <mxCell id="NYQTRqBEmPjAueyma8ls-6" value="t" style="edgeLabel;html=1;align=center;verticalAlign=middle;resizable=0;points=[];" parent="NYQTRqBEmPjAueyma8ls-5" vertex="1" connectable="0">
          <mxGeometry x="-0.3271" y="4" relative="1" as="geometry">
            <mxPoint as="offset" />
          </mxGeometry>
        </mxCell>
        <mxCell id="NYQTRqBEmPjAueyma8ls-7" value="" style="endArrow=classic;html=1;rounded=0;" parent="1" edge="1">
          <mxGeometry width="50" height="50" relative="1" as="geometry">
            <mxPoint x="450" y="470" as="sourcePoint" />
            <mxPoint x="450" y="470" as="targetPoint" />
            <Array as="points">
              <mxPoint x="460" y="340" />
            </Array>
          </mxGeometry>
        </mxCell>
        <mxCell id="NYQTRqBEmPjAueyma8ls-8" value="" style="endArrow=classic;html=1;rounded=0;" parent="1" edge="1">
          <mxGeometry width="50" height="50" relative="1" as="geometry">
            <mxPoint x="-69.99814453125" y="290" as="sourcePoint" />
            <mxPoint x="615.1" y="270" as="targetPoint" />
          </mxGeometry>
        </mxCell>
        <mxCell id="NYQTRqBEmPjAueyma8ls-9" value="" style="endArrow=classic;html=1;rounded=0;" parent="1" edge="1">
          <mxGeometry width="50" height="50" relative="1" as="geometry">
            <mxPoint x="-60" y="460" as="sourcePoint" />
            <mxPoint x="-50" y="440" as="targetPoint" />
            <Array as="points">
              <mxPoint x="-30" y="780" />
            </Array>
          </mxGeometry>
        </mxCell>
        <mxCell id="NYQTRqBEmPjAueyma8ls-10" value="" style="endArrow=classic;html=1;rounded=0;" parent="1" edge="1">
          <mxGeometry width="50" height="50" relative="1" as="geometry">
            <mxPoint x="160" y="370" as="sourcePoint" />
            <mxPoint x="210" y="320" as="targetPoint" />
          </mxGeometry>
        </mxCell>
        <mxCell id="NYQTRqBEmPjAueyma8ls-11" value="" style="endArrow=classic;html=1;rounded=0;" parent="1" edge="1">
          <mxGeometry width="50" height="50" relative="1" as="geometry">
            <mxPoint x="160" y="370" as="sourcePoint" />
            <mxPoint x="210" y="320" as="targetPoint" />
          </mxGeometry>
        </mxCell>
        <mxCell id="NYQTRqBEmPjAueyma8ls-12" value="" style="endArrow=classic;html=1;rounded=0;" parent="1" edge="1">
          <mxGeometry width="50" height="50" relative="1" as="geometry">
            <mxPoint x="160" y="370" as="sourcePoint" />
            <mxPoint x="210" y="320" as="targetPoint" />
          </mxGeometry>
        </mxCell>
        <mxCell id="NYQTRqBEmPjAueyma8ls-16" value="input x value from user." style="shape=parallelogram;perimeter=parallelogramPerimeter;whiteSpace=wrap;html=1;fixedSize=1;" parent="1" vertex="1">
          <mxGeometry x="10" y="170" width="160" height="70" as="geometry" />
        </mxCell>
        <mxCell id="NYQTRqBEmPjAueyma8ls-17" value="input y value from user." style="shape=parallelogram;perimeter=parallelogramPerimeter;whiteSpace=wrap;html=1;fixedSize=1;" parent="1" vertex="1">
          <mxGeometry y="290" width="160" height="70" as="geometry" />
        </mxCell>
        <mxCell id="NYQTRqBEmPjAueyma8ls-18" value="z =0" style="rounded=1;whiteSpace=wrap;html=1;" parent="1" vertex="1">
          <mxGeometry x="10" y="390" width="120" height="60" as="geometry" />
        </mxCell>
        <mxCell id="NYQTRqBEmPjAueyma8ls-19" value="x+y=z" style="shape=process;whiteSpace=wrap;html=1;backgroundOutline=1;" parent="1" vertex="1">
          <mxGeometry x="20" y="500" width="120" height="60" as="geometry" />
        </mxCell>
        <mxCell id="NYQTRqBEmPjAueyma8ls-20" value="print z value" style="rounded=1;whiteSpace=wrap;html=1;" parent="1" vertex="1">
          <mxGeometry x="10" y="590" width="120" height="60" as="geometry" />
        </mxCell>
        <mxCell id="NYQTRqBEmPjAueyma8ls-21" value="stop" style="ellipse;whiteSpace=wrap;html=1;" parent="1" vertex="1">
          <mxGeometry x="10" y="680" width="120" height="80" as="geometry" />
        </mxCell>
      </root>
    </mxGraphModel>
  </diagram>
  <diagram id="wGpxwc-0hKfLnkGwcGdP" name="Page-2">
    <mxGraphModel dx="1389" dy="731" grid="1" gridSize="10" guides="1" tooltips="1" connect="1" arrows="1" fold="1" page="1" pageScale="1" pageWidth="850" pageHeight="1100" background="light-dark(#FFFFFF,#33FFFF)" math="0" shadow="0">
      <root>
        <mxCell id="0" />
        <mxCell id="1" parent="0" />
        <mxCell id="dvv9xsJNTSFivQV1pFEV-1" value="Start" style="ellipse;whiteSpace=wrap;html=1;fillColor=#0050ef;fontColor=#ffffff;strokeColor=#001DBC;" vertex="1" parent="1">
          <mxGeometry x="350" y="100" width="120" height="80" as="geometry" />
        </mxCell>
        <mxCell id="dvv9xsJNTSFivQV1pFEV-2" value="" style="endArrow=classic;html=1;rounded=0;" edge="1" parent="1">
          <mxGeometry width="50" height="50" relative="1" as="geometry">
            <mxPoint x="385" y="230" as="sourcePoint" />
            <mxPoint x="385" y="280" as="targetPoint" />
          </mxGeometry>
        </mxCell>
        <mxCell id="dvv9xsJNTSFivQV1pFEV-7" value="" style="endArrow=classic;html=1;rounded=0;strokeColor=light-dark(#000000,#000000);" edge="1" parent="1" target="dvv9xsJNTSFivQV1pFEV-8">
          <mxGeometry width="50" height="50" relative="1" as="geometry">
            <mxPoint x="409.5" y="180" as="sourcePoint" />
            <mxPoint x="409.5" y="240" as="targetPoint" />
          </mxGeometry>
        </mxCell>
        <mxCell id="dvv9xsJNTSFivQV1pFEV-8" value="Initialize 3 numbers A B C" style="rounded=1;whiteSpace=wrap;html=1;fillColor=#6a00ff;fontColor=#ffffff;strokeColor=#3700CC;" vertex="1" parent="1">
          <mxGeometry x="350" y="240" width="120" height="60" as="geometry" />
        </mxCell>
        <mxCell id="dvv9xsJNTSFivQV1pFEV-13" value="NO" style="text;html=1;align=center;verticalAlign=middle;resizable=0;points=[];autosize=1;strokeColor=none;fillColor=none;" vertex="1" parent="1">
          <mxGeometry x="310" y="328" width="40" height="30" as="geometry" />
        </mxCell>
        <mxCell id="dvv9xsJNTSFivQV1pFEV-14" value="Yes" style="text;html=1;align=center;verticalAlign=middle;resizable=0;points=[];autosize=1;strokeColor=none;fillColor=none;" vertex="1" parent="1">
          <mxGeometry x="480" y="328" width="40" height="30" as="geometry" />
        </mxCell>
        <mxCell id="dvv9xsJNTSFivQV1pFEV-15" value="A&amp;gt;B" style="rhombus;whiteSpace=wrap;html=1;fillColor=#d80073;fontColor=#ffffff;strokeColor=#A50040;" vertex="1" parent="1">
          <mxGeometry x="370" y="350" width="80" height="80" as="geometry" />
        </mxCell>
        <mxCell id="dvv9xsJNTSFivQV1pFEV-16" value="" style="endArrow=classic;html=1;rounded=0;strokeColor=light-dark(#000000,#000000);" edge="1" parent="1">
          <mxGeometry width="50" height="50" relative="1" as="geometry">
            <mxPoint x="409.5" y="300" as="sourcePoint" />
            <mxPoint x="410" y="360" as="targetPoint" />
          </mxGeometry>
        </mxCell>
        <mxCell id="dvv9xsJNTSFivQV1pFEV-18" value="No&amp;nbsp; &amp;nbsp; &amp;nbsp; &amp;nbsp; &amp;nbsp; &amp;nbsp; &amp;nbsp; &amp;nbsp; &amp;nbsp; &amp;nbsp; &amp;nbsp; &amp;nbsp; &amp;nbsp; &amp;nbsp; &amp;nbsp; &amp;nbsp; &amp;nbsp; &amp;nbsp; &amp;nbsp; &amp;nbsp; &amp;nbsp; &amp;nbsp; &amp;nbsp; &amp;nbsp; &amp;nbsp; &amp;nbsp; &amp;nbsp; &amp;nbsp; &amp;nbsp; &amp;nbsp; No&amp;nbsp; &amp;nbsp;" style="rounded=0;whiteSpace=wrap;html=1;fillColor=#a20025;fontColor=#ffffff;strokeColor=#6F0000;" vertex="1" parent="1">
          <mxGeometry x="250" y="430" width="320" height="190" as="geometry" />
        </mxCell>
        <mxCell id="dvv9xsJNTSFivQV1pFEV-19" value="B&amp;gt;C" style="rhombus;whiteSpace=wrap;html=1;fillColor=#008a00;fontColor=#ffffff;strokeColor=#005700;" vertex="1" parent="1">
          <mxGeometry x="220" y="580" width="80" height="80" as="geometry" />
        </mxCell>
        <mxCell id="dvv9xsJNTSFivQV1pFEV-20" value="A&amp;gt;C" style="rhombus;whiteSpace=wrap;html=1;fillColor=#008a00;fontColor=#ffffff;strokeColor=#005700;" vertex="1" parent="1">
          <mxGeometry x="500" y="580" width="80" height="80" as="geometry" />
        </mxCell>
        <mxCell id="dvv9xsJNTSFivQV1pFEV-21" value="Yes" style="text;html=1;align=center;verticalAlign=middle;resizable=0;points=[];autosize=1;strokeColor=none;fillColor=none;" vertex="1" parent="1">
          <mxGeometry x="220" y="688" width="40" height="30" as="geometry" />
        </mxCell>
        <mxCell id="dvv9xsJNTSFivQV1pFEV-22" value="Yes" style="text;html=1;align=center;verticalAlign=middle;resizable=0;points=[];autosize=1;strokeColor=none;fillColor=none;" vertex="1" parent="1">
          <mxGeometry x="540" y="688" width="40" height="30" as="geometry" />
        </mxCell>
        <mxCell id="dvv9xsJNTSFivQV1pFEV-23" value="Print B is largest." style="rounded=1;whiteSpace=wrap;html=1;fillColor=#1ba1e2;fontColor=#ffffff;strokeColor=#006EAF;" vertex="1" parent="1">
          <mxGeometry x="200" y="730" width="120" height="60" as="geometry" />
        </mxCell>
        <mxCell id="dvv9xsJNTSFivQV1pFEV-24" value="Print C is largest." style="rounded=1;whiteSpace=wrap;html=1;fillColor=#1ba1e2;fontColor=#ffffff;strokeColor=#006EAF;" vertex="1" parent="1">
          <mxGeometry x="340" y="730" width="120" height="60" as="geometry" />
        </mxCell>
        <mxCell id="dvv9xsJNTSFivQV1pFEV-25" value="" style="rounded=1;whiteSpace=wrap;html=1;fillColor=#1ba1e2;fontColor=#ffffff;strokeColor=#006EAF;" vertex="1" parent="1">
          <mxGeometry x="490" y="730" width="120" height="60" as="geometry" />
        </mxCell>
      </root>
    </mxGraphModel>
  </diagram>
</mxfile>
